<mxfile host="app.diagrams.net" modified="2023-11-20T15:20:06.166Z" agent="Mozilla/5.0 (Windows NT 10.0; Win64; x64) AppleWebKit/537.36 (KHTML, like Gecko) Chrome/119.0.0.0 Safari/537.36" etag="xQaFrWJ6V_xedhVsee0A" version="22.1.3" type="device">
  <diagram name="Page-1" id="FhVqyLNNMotR_UKM4Bwt">
    <mxGraphModel dx="625" dy="345" grid="0" gridSize="10" guides="1" tooltips="1" connect="1" arrows="1" fold="1" page="0" pageScale="1" pageWidth="850" pageHeight="1100" math="0" shadow="0">
      <root>
        <mxCell id="0" />
        <mxCell id="1" parent="0" />
        <mxCell id="BxB_oSbhjdNwd_H4GFx3-1" value="Actor" style="shape=umlActor;verticalLabelPosition=bottom;verticalAlign=top;html=1;outlineConnect=0;" parent="1" vertex="1">
          <mxGeometry x="197" y="398" width="30" height="60" as="geometry" />
        </mxCell>
        <mxCell id="BxB_oSbhjdNwd_H4GFx3-2" value="chrome" style="ellipse;whiteSpace=wrap;html=1;aspect=fixed;" parent="1" vertex="1">
          <mxGeometry x="250" y="372" width="80" height="80" as="geometry" />
        </mxCell>
        <mxCell id="BxB_oSbhjdNwd_H4GFx3-3" value="/sales/" style="shape=step;perimeter=stepPerimeter;whiteSpace=wrap;html=1;fixedSize=1;fillColor=#dae8fc;strokeColor=#6c8ebf;" parent="1" vertex="1">
          <mxGeometry x="367" y="339" width="107" height="37" as="geometry" />
        </mxCell>
        <mxCell id="BxB_oSbhjdNwd_H4GFx3-4" value="URL" style="text;html=1;strokeColor=none;fillColor=none;align=center;verticalAlign=middle;whiteSpace=wrap;rounded=0;" parent="1" vertex="1">
          <mxGeometry x="396" y="289" width="60" height="30" as="geometry" />
        </mxCell>
        <mxCell id="BxB_oSbhjdNwd_H4GFx3-8" style="edgeStyle=orthogonalEdgeStyle;rounded=0;orthogonalLoop=1;jettySize=auto;html=1;" parent="1" source="BxB_oSbhjdNwd_H4GFx3-5" target="BxB_oSbhjdNwd_H4GFx3-7" edge="1">
          <mxGeometry relative="1" as="geometry" />
        </mxCell>
        <mxCell id="BxB_oSbhjdNwd_H4GFx3-11" style="edgeStyle=orthogonalEdgeStyle;rounded=0;orthogonalLoop=1;jettySize=auto;html=1;" parent="1" source="BxB_oSbhjdNwd_H4GFx3-5" target="BxB_oSbhjdNwd_H4GFx3-10" edge="1">
          <mxGeometry relative="1" as="geometry" />
        </mxCell>
        <mxCell id="BxB_oSbhjdNwd_H4GFx3-5" value="def sales" style="shape=cube;whiteSpace=wrap;html=1;boundedLbl=1;backgroundOutline=1;darkOpacity=0.05;darkOpacity2=0.1;fillColor=#d5e8d4;strokeColor=#82b366;" parent="1" vertex="1">
          <mxGeometry x="555" y="334" width="120" height="80" as="geometry" />
        </mxCell>
        <mxCell id="BxB_oSbhjdNwd_H4GFx3-6" value="View" style="text;html=1;strokeColor=none;fillColor=none;align=center;verticalAlign=middle;whiteSpace=wrap;rounded=0;" parent="1" vertex="1">
          <mxGeometry x="576" y="276" width="60" height="30" as="geometry" />
        </mxCell>
        <mxCell id="BxB_oSbhjdNwd_H4GFx3-7" value="Services" style="shape=cylinder3;whiteSpace=wrap;html=1;boundedLbl=1;backgroundOutline=1;size=15;fillColor=#ffe6cc;strokeColor=#d79b00;" parent="1" vertex="1">
          <mxGeometry x="709" y="222" width="60" height="80" as="geometry" />
        </mxCell>
        <mxCell id="BxB_oSbhjdNwd_H4GFx3-9" value="ORM(SQL)" style="text;html=1;strokeColor=none;fillColor=none;align=center;verticalAlign=middle;whiteSpace=wrap;rounded=0;" parent="1" vertex="1">
          <mxGeometry x="713" y="183" width="60" height="30" as="geometry" />
        </mxCell>
        <mxCell id="BxB_oSbhjdNwd_H4GFx3-10" value="sales.html" style="shape=note;whiteSpace=wrap;html=1;backgroundOutline=1;darkOpacity=0.05;fillColor=#f8cecc;strokeColor=#b85450;" parent="1" vertex="1">
          <mxGeometry x="508" y="498" width="80" height="100" as="geometry" />
        </mxCell>
        <mxCell id="Dxh6uQONWECwrhy9t8mU-1" value="Idea" style="shape=cylinder3;whiteSpace=wrap;html=1;boundedLbl=1;backgroundOutline=1;size=15;fillColor=#ffe6cc;strokeColor=#d79b00;" vertex="1" parent="1">
          <mxGeometry x="625" y="965" width="60" height="80" as="geometry" />
        </mxCell>
        <mxCell id="Dxh6uQONWECwrhy9t8mU-2" value="&lt;b&gt;Create&lt;/b&gt;&lt;br&gt;&lt;b&gt;Read&lt;/b&gt; - IdeaList, IdeaDetail&lt;br&gt;&lt;b&gt;Update&lt;/b&gt;&lt;br&gt;&lt;b&gt;Delete&lt;/b&gt;" style="text;html=1;strokeColor=#6c8ebf;fillColor=#dae8fc;align=center;verticalAlign=middle;whiteSpace=wrap;rounded=0;" vertex="1" parent="1">
          <mxGeometry x="472" y="821" width="177" height="69" as="geometry" />
        </mxCell>
        <mxCell id="Dxh6uQONWECwrhy9t8mU-3" value="models.py" style="text;html=1;strokeColor=none;fillColor=none;align=center;verticalAlign=middle;whiteSpace=wrap;rounded=0;" vertex="1" parent="1">
          <mxGeometry x="628" y="935" width="60" height="30" as="geometry" />
        </mxCell>
        <mxCell id="Dxh6uQONWECwrhy9t8mU-4" value="Idea" style="swimlane;fontStyle=0;childLayout=stackLayout;horizontal=1;startSize=30;horizontalStack=0;resizeParent=1;resizeParentMax=0;resizeLast=0;collapsible=1;marginBottom=0;whiteSpace=wrap;html=1;fillColor=#ffe6cc;strokeColor=#d79b00;" vertex="1" parent="1">
          <mxGeometry x="699" y="927" width="140" height="150" as="geometry" />
        </mxCell>
        <mxCell id="Dxh6uQONWECwrhy9t8mU-5" value="author" style="text;strokeColor=none;fillColor=none;align=left;verticalAlign=middle;spacingLeft=4;spacingRight=4;overflow=hidden;points=[[0,0.5],[1,0.5]];portConstraint=eastwest;rotatable=0;whiteSpace=wrap;html=1;" vertex="1" parent="Dxh6uQONWECwrhy9t8mU-4">
          <mxGeometry y="30" width="140" height="30" as="geometry" />
        </mxCell>
        <mxCell id="Dxh6uQONWECwrhy9t8mU-6" value="title" style="text;strokeColor=none;fillColor=none;align=left;verticalAlign=middle;spacingLeft=4;spacingRight=4;overflow=hidden;points=[[0,0.5],[1,0.5]];portConstraint=eastwest;rotatable=0;whiteSpace=wrap;html=1;" vertex="1" parent="Dxh6uQONWECwrhy9t8mU-4">
          <mxGeometry y="60" width="140" height="30" as="geometry" />
        </mxCell>
        <mxCell id="Dxh6uQONWECwrhy9t8mU-7" value="description" style="text;strokeColor=none;fillColor=none;align=left;verticalAlign=middle;spacingLeft=4;spacingRight=4;overflow=hidden;points=[[0,0.5],[1,0.5]];portConstraint=eastwest;rotatable=0;whiteSpace=wrap;html=1;" vertex="1" parent="Dxh6uQONWECwrhy9t8mU-4">
          <mxGeometry y="90" width="140" height="30" as="geometry" />
        </mxCell>
        <mxCell id="Dxh6uQONWECwrhy9t8mU-8" value="..." style="text;strokeColor=none;fillColor=none;align=left;verticalAlign=middle;spacingLeft=4;spacingRight=4;overflow=hidden;points=[[0,0.5],[1,0.5]];portConstraint=eastwest;rotatable=0;whiteSpace=wrap;html=1;" vertex="1" parent="Dxh6uQONWECwrhy9t8mU-4">
          <mxGeometry y="120" width="140" height="30" as="geometry" />
        </mxCell>
        <mxCell id="Dxh6uQONWECwrhy9t8mU-9" value="/idea_list/" style="shape=step;perimeter=stepPerimeter;whiteSpace=wrap;html=1;fixedSize=1;" vertex="1" parent="1">
          <mxGeometry x="324" y="948" width="150" height="34" as="geometry" />
        </mxCell>
        <mxCell id="Dxh6uQONWECwrhy9t8mU-10" value="urls.py" style="text;html=1;strokeColor=none;fillColor=none;align=center;verticalAlign=middle;whiteSpace=wrap;rounded=0;" vertex="1" parent="1">
          <mxGeometry x="365" y="909" width="60" height="30" as="geometry" />
        </mxCell>
        <mxCell id="Dxh6uQONWECwrhy9t8mU-11" value="/idea_detail/" style="shape=step;perimeter=stepPerimeter;whiteSpace=wrap;html=1;fixedSize=1;" vertex="1" parent="1">
          <mxGeometry x="324" y="985" width="150" height="34" as="geometry" />
        </mxCell>
        <mxCell id="Dxh6uQONWECwrhy9t8mU-12" value="/idea_update/" style="shape=step;perimeter=stepPerimeter;whiteSpace=wrap;html=1;fixedSize=1;" vertex="1" parent="1">
          <mxGeometry x="327" y="1086" width="150" height="34" as="geometry" />
        </mxCell>
        <mxCell id="Dxh6uQONWECwrhy9t8mU-13" value="/idea_delete/" style="shape=step;perimeter=stepPerimeter;whiteSpace=wrap;html=1;fixedSize=1;" vertex="1" parent="1">
          <mxGeometry x="327" y="1129" width="150" height="34" as="geometry" />
        </mxCell>
        <mxCell id="Dxh6uQONWECwrhy9t8mU-14" value="/idea_create/" style="shape=step;perimeter=stepPerimeter;whiteSpace=wrap;html=1;fixedSize=1;" vertex="1" parent="1">
          <mxGeometry x="330" y="1045" width="150" height="34" as="geometry" />
        </mxCell>
        <mxCell id="Dxh6uQONWECwrhy9t8mU-15" value="0." style="text;html=1;strokeColor=none;fillColor=none;align=center;verticalAlign=middle;whiteSpace=wrap;rounded=0;" vertex="1" parent="1">
          <mxGeometry x="573" y="913" width="60" height="30" as="geometry" />
        </mxCell>
        <mxCell id="Dxh6uQONWECwrhy9t8mU-16" value="1." style="text;html=1;strokeColor=none;fillColor=none;align=center;verticalAlign=middle;whiteSpace=wrap;rounded=0;" vertex="1" parent="1">
          <mxGeometry x="267" y="905" width="60" height="30" as="geometry" />
        </mxCell>
        <mxCell id="Dxh6uQONWECwrhy9t8mU-17" value="templates.html" style="text;html=1;strokeColor=none;fillColor=none;align=center;verticalAlign=middle;whiteSpace=wrap;rounded=0;" vertex="1" parent="1">
          <mxGeometry x="599" y="1108" width="109.5" height="32" as="geometry" />
        </mxCell>
        <mxCell id="Dxh6uQONWECwrhy9t8mU-23" value="idea_list" style="shape=note;whiteSpace=wrap;html=1;backgroundOutline=1;darkOpacity=0.05;" vertex="1" parent="1">
          <mxGeometry x="616.5" y="1149" width="80" height="100" as="geometry" />
        </mxCell>
        <mxCell id="Dxh6uQONWECwrhy9t8mU-24" value="idea_detail" style="shape=note;whiteSpace=wrap;html=1;backgroundOutline=1;darkOpacity=0.05;" vertex="1" parent="1">
          <mxGeometry x="740.5" y="1149" width="80" height="100" as="geometry" />
        </mxCell>
        <mxCell id="Dxh6uQONWECwrhy9t8mU-25" value="idea_create" style="shape=note;whiteSpace=wrap;html=1;backgroundOutline=1;darkOpacity=0.05;" vertex="1" parent="1">
          <mxGeometry x="621.5" y="1260" width="80" height="100" as="geometry" />
        </mxCell>
        <mxCell id="Dxh6uQONWECwrhy9t8mU-26" value="idea_update" style="shape=note;whiteSpace=wrap;html=1;backgroundOutline=1;darkOpacity=0.05;" vertex="1" parent="1">
          <mxGeometry x="740.5" y="1266" width="80" height="100" as="geometry" />
        </mxCell>
        <mxCell id="Dxh6uQONWECwrhy9t8mU-27" value="idea_delete" style="triangle;whiteSpace=wrap;html=1;" vertex="1" parent="1">
          <mxGeometry x="676.5" y="1134" width="66.5" height="49" as="geometry" />
        </mxCell>
        <mxCell id="Dxh6uQONWECwrhy9t8mU-28" value="3." style="text;html=1;strokeColor=none;fillColor=none;align=center;verticalAlign=middle;whiteSpace=wrap;rounded=0;" vertex="1" parent="1">
          <mxGeometry x="546" y="1102" width="60" height="30" as="geometry" />
        </mxCell>
        <mxCell id="Dxh6uQONWECwrhy9t8mU-29" value="2." style="text;html=1;strokeColor=none;fillColor=none;align=center;verticalAlign=middle;whiteSpace=wrap;rounded=0;" vertex="1" parent="1">
          <mxGeometry x="320" y="1215" width="60" height="30" as="geometry" />
        </mxCell>
        <mxCell id="Dxh6uQONWECwrhy9t8mU-30" value="views.py" style="text;html=1;strokeColor=none;fillColor=none;align=center;verticalAlign=middle;whiteSpace=wrap;rounded=0;" vertex="1" parent="1">
          <mxGeometry x="388" y="1205" width="60" height="30" as="geometry" />
        </mxCell>
        <mxCell id="Dxh6uQONWECwrhy9t8mU-31" value="ORM" style="shape=tape;whiteSpace=wrap;html=1;fillColor=#e1d5e7;strokeColor=#9673a6;" vertex="1" parent="1">
          <mxGeometry x="584" y="1015" width="57" height="69" as="geometry" />
        </mxCell>
      </root>
    </mxGraphModel>
  </diagram>
</mxfile>
